<svg width="80" height="40" viewBox="0 0 33 33" fill="none" xmlns="http://www.w3.org/2000/svg">
<path d="M12.0881 27.8007H6.50056C6.23534 27.8007 5.98099 27.6953 5.79345 27.5078C5.60591 27.3202 5.50056 27.0659 5.50056 26.8007V21.2132C5.5001 21.0833 5.52526 20.9547 5.57459 20.8345C5.62393 20.7144 5.69646 20.6052 5.78806 20.5132L20.7881 5.51318C20.8811 5.41869 20.992 5.34366 21.1143 5.29244C21.2367 5.24123 21.3679 5.21485 21.5006 5.21485C21.6332 5.21485 21.7645 5.24123 21.8868 5.29244C22.0091 5.34366 22.12 5.41869 22.2131 5.51318L27.7881 11.0882C27.8825 11.1812 27.9576 11.2921 28.0088 11.4145C28.06 11.5368 28.0864 11.6681 28.0864 11.8007C28.0864 11.9333 28.06 12.0646 28.0088 12.1869C27.9576 12.3092 27.8825 12.4201 27.7881 12.5132L12.7881 27.5132C12.696 27.6048 12.5868 27.6773 12.4667 27.7266C12.3466 27.776 12.2179 27.8011 12.0881 27.8007V27.8007Z" stroke="black" stroke-width="2" stroke-linecap="round" stroke-linejoin="round"/>
<path d="M17.5005 8.80068L24.5005 15.8007" stroke="black" stroke-width="2" stroke-linecap="round" stroke-linejoin="round"/>
<path d="M21.0005 12.3007L9.00055 24.3007" stroke="black" stroke-width="2" stroke-linecap="round" stroke-linejoin="round"/>
<path d="M12.438 27.7382L5.56305 20.8632" stroke="black" stroke-width="2" stroke-linecap="round" stroke-linejoin="round"/>
</svg>
